<?xml version="1.0" standalone="no"?>
<!DOCTYPE svg PUBLIC "-//W3C//DTD SVG 20010904//EN"
 "http://www.w3.org/TR/2001/REC-SVG-20010904/DTD/svg10.dtd">
<svg version="1.0" xmlns="http://www.w3.org/2000/svg"
 width="300.000000pt" height="90.000000pt" viewBox="0 0 300.000000 90.000000"
 preserveAspectRatio="xMidYMid meet">
<metadata>
Created by potrace 1.10, written by Peter Selinger 2001-2011
</metadata>
<g transform="translate(0.000000,90.000000) scale(0.100000,-0.100000)"
fill="#000000" stroke="none">
<path d="M1230 695 c-7 -9 -9 -19 -5 -23 4 -4 10 -1 12 6 3 6 11 12 19 12 31
0 14 -122 -31 -225 l-18 -40 -9 30 c-5 17 -7 74 -6 127 3 110 -13 140 -23 42
-3 -34 -16 -90 -29 -125 l-24 -64 -7 35 c-4 19 -11 77 -14 128 -5 62 -11 90
-17 84 -7 -7 -7 -42 1 -105 6 -53 11 -114 11 -136 0 -23 5 -41 10 -41 11 0 60
96 60 118 0 6 5 12 10 12 6 0 10 -22 10 -48 0 -27 6 -57 14 -67 13 -18 15 -16
39 31 65 129 76 264 21 264 -6 0 -17 -7 -24 -15z"/>
<path d="M1420 583 c-31 -146 -31 -177 -2 -181 12 -2 22 1 22 7 0 6 -7 11 -15
11 -20 0 -19 9 10 144 29 132 28 126 16 126 -4 0 -19 -48 -31 -107z"/>
<path d="M1319 528 c-20 -37 -28 -90 -18 -110 12 -22 42 -23 59 -3 11 13 8 14
-19 9 -27 -6 -31 -4 -31 15 0 14 9 25 24 31 28 10 50 45 42 66 -8 22 -44 17
-57 -8z m25 -35 c-26 -19 -31 2 -8 29 18 19 19 19 23 2 2 -10 -5 -24 -15 -31z"/>
<path d="M1503 542 c-15 -10 -43 -75 -43 -100 0 -11 7 -25 15 -32 18 -15 55
-4 55 18 0 12 -3 13 -12 4 -39 -39 -52 20 -18 76 17 28 23 32 35 22 12 -10 15
-9 15 4 0 17 -26 21 -47 8z"/>
<path d="M1580 518 c-31 -51 -25 -118 11 -118 32 0 76 92 63 132 -9 31 -52 22
-74 -14z m60 -3 c0 -28 -32 -95 -46 -95 -22 0 -17 63 7 94 21 26 39 27 39 1z"/>
<path d="M1692 493 c-6 -32 -13 -66 -17 -75 -4 -10 -3 -18 2 -18 5 0 19 24 32
54 23 55 61 102 61 75 0 -8 -9 -37 -20 -66 -12 -32 -16 -54 -10 -58 6 -4 12 0
14 7 18 63 41 110 57 118 23 13 24 5 4 -50 -16 -46 -19 -80 -7 -80 4 0 15 30
24 68 18 73 12 95 -22 74 -12 -7 -21 -8 -25 -2 -12 19 -40 10 -58 -17 l-18
-28 6 28 c3 15 1 27 -4 27 -5 0 -13 -26 -19 -57z"/>
<path d="M1890 518 c-21 -35 -27 -103 -9 -113 13 -9 59 3 59 15 0 5 -12 8 -27
7 -39 -3 -39 24 0 48 39 25 51 75 18 75 -13 0 -29 -13 -41 -32z m26 -26 c-24
-24 -31 -6 -10 25 16 24 19 26 22 9 2 -10 -3 -25 -12 -34z"/>
</g>
</svg>
